# xmcd
#
# Track frame offsets:
#  150
#  18337
#  38447
#  53725
#  70672
#  91675
#  110337
#  127172
#  147600
#  165300
#  183687
#  200610
#  219375
#  237875
#  257150
#  275775
#  292885
#
# Disc length: 4139 seconds
#
# Revision: 0
# Processed by: cddbd v1.5.1PL0 Copyright (c) Steve Scherf et al.
# Submitted via: Collectorz.com_Music_Collector 6.9
#
DISCID=f7102911
DTITLE=Various Artist - Hitmakers - Top 40 CD Sampler April 1988
DYEAR=1988
DGENRE=
TTITLE0=Fiorillo, Elisa - Forgive Me For Dreaming
TTITLE1=Colortone - Nothing's Gonna Be Alright
TTITLE2=Sweet Sensation - Take It While It's Hot
TTITLE3=Honeymoon Suite - Love Changes Everything
TTITLE4=Plant, Robert - Tall Cool One
TTITLE5=Godfathers - Birth, School, Work, Death
TTITLE6=Poison - Nothin' But A Good Time
TTITLE7=Walk This Way - In My Room
TTITLE8=Hewett, Howard - Strange Relationship
TTITLE9=Church - Under The Milky Way
TTITLE10=Reyne, James - Fall of Rome
TTITLE11=New Order - Blue Monday
TTITLE12=Ilusion - I Want Your Love In Me
TTITLE13=Spencer, Tracie - Symptoms of True Love
TTITLE14=Scott, Amanda - Lies
TTITLE15=Goffin, Louise - Bridge of Sighs
TTITLE16=Climie-Fisher - Love Changes Everything
EXTD=
EXTT0=
EXTT1=
EXTT2=
EXTT3=
EXTT4=
EXTT5=
EXTT6=
EXTT7=
EXTT8=
EXTT9=
EXTT10=
EXTT11=
EXTT12=
EXTT13=
EXTT14=
EXTT15=
EXTT16=
PLAYORDER=
